<svg aria-hidden="false" role="img" aria-label="politics, speaker, press-conference, speech" width="18" height="18" xmlns="http://www.w3.org/2000/svg" viewBox="0 0 24 24"><title>24 politics, speaker, press conference, speech</title><g fill="none" class="nc-icon-wrapper"><path d="M5.75 7.5V5.53518C5.75 5.20083 5.9171 4.8886 6.1953 4.70313L8.75 3" stroke="#000000" stroke-width="1.5" stroke-linecap="round" stroke-linejoin="round"></path><path d="M18.25 7.5V5.53518C18.25 5.20083 18.0829 4.8886 17.8047 4.70313L15.25 3" stroke="#000000" stroke-width="1.5" stroke-linecap="round" stroke-linejoin="round"></path><circle cx="8.75" cy="3" r="1.75" fill="#000000"></circle><circle cx="15.25" cy="3" r="1.75" fill="#000000"></circle><path d="M3.75 8.75C3.75 8.19772 4.19772 7.75 4.75 7.75H19.25C19.8023 7.75 20.25 8.19772 20.25 8.75V9.25C20.25 10.3546 19.3546 11.25 18.25 11.25H5.75C4.64543 11.25 3.75 10.3546 3.75 9.25V8.75Z" stroke="#000000" stroke-width="1.5" stroke-linecap="round" stroke-linejoin="round"></path><path d="M5 11.5L5.79738 18.4771C5.91283 19.4872 6.76774 20.25 7.78445 20.25H16.2156C17.2323 20.25 18.0872 19.4872 18.2026 18.4771L19 11.5" stroke="#000000" stroke-width="1.5" stroke-linecap="round" stroke-linejoin="round"></path></g></svg>